# AST/ASF file generated using VICON BodyLanguage
# -----------------------------------------------
:version 1.10
:name VICON
:units
  mass 1.0
  length 0.45
  angle deg
:documentation
   .ast/.asf automatically generated from VICON data using
   VICON BodyBuilder and BodyLanguage model FoxedUp or BRILLIANT.MOD
:root
   order TX TY TZ RX RY RZ
   axis XYZ
   position 0 0 0  
   orientation 0 0 0 
:bonedata
  begin
     id 1 
     name lhipjoint
     direction 0.653368 -0.678499 0.335782 
     length 2.51848 
     axis 0 0 0  XYZ
  end
  begin
     id 2 
     name lfemur
     direction 0.34202 -0.939693 0  
     length 6.57749  
     axis 0 0 20  XYZ
    dof rx ry rz
    limits (-160.0 20.0)
           (-70.0 70.0)
           (-60.0 70.0)
  end
  begin
     id 3 
     name ltibia
     direction 0.34202 -0.939693 0   
     length 7.94618   
     axis 0 0 20   XYZ
    dof rx
    limits (-10.0 170.0)
  end
  begin
     id 4 
     name lfoot
     direction 0.0811271 -0.222895 0.971461   
     length 2.31339   
     axis -90 7.62852e-016 20   XYZ
    dof rx rz
    limits (-45.0 90.0)
           (-70.0 20.0)
  end
  begin
     id 5 
     name ltoes
     direction 1.53568e-011 -4.21885e-011 1   
     length 1.15935   
     axis -90 7.62852e-016 20   XYZ
    dof rx
    limits (-90.0 20.0)
  end
  begin
     id 6 
     name rhipjoint
     direction -0.640058 -0.688614 0.340788   
     length 2.48149  
     axis 0 0 0  XYZ 
  end
  begin
     id 7 
     name rfemur
     direction -0.34202 -0.939693 0   
     length 6.57875   
     axis 0 0 -20   XYZ
    dof rx ry rz
    limits (-160.0 20.0)
           (-70.0 70.0)
           (-70.0 60.0)
  end
  begin
     id 8 
     name rtibia
     direction -0.34202 -0.939693 0   
     length 7.977   
     axis 0 0 -20   XYZ
    dof rx
    limits (-10.0 170.0)
 end
 begin
     id 9 
     name rfoot
     direction -0.0979793 -0.269196 0.958089   
     length 2.19857  
     axis -90 -7.62852e-016 -20   XYZ
    dof rx rz
    limits (-45.0 90.0)
           (-20.0 70.0)
  end
  begin
     id 10 
     name rtoes
     direction -1.53556e-011 -4.21868e-011 1   
     length 1.09838   
     axis -90 -7.62852e-016 -20   XYZ
    dof rx
    limits (-90.0 20.0)
  end
  begin
     id 11 
     name lowerback
     direction 0.0149039 0.998517 -0.0523597   
     length 2.10809   
     axis 0 0 0   XYZ
    dof rx ry rz
    limits (-20.0 45.0)
           (-30.0 30.0)
           (-30.0 30.0)
  end
  begin
     id 12 
     name upperback
     direction -0.00882659 0.999418 -0.0329624   
     length 2.1102   
     axis 0 0 0   XYZ
    dof rx ry rz
    limits (-20.0 45.0)
           (-30.0 30.0)
           (-30.0 30.0)
  end
  begin
     id 13 
     name thorax
     direction -0.0165585 0.999826 -0.0085833   
     length 2.11039   
     axis 0 0 0   XYZ
    dof rx ry rz
    limits (-20.0 45.0)
           (-30.0 30.0)
           (-30.0 30.0)
  end
  begin
     id 14 
     name lowerneck
     direction -0.0130877 0.999911 0.00260353   
     length 1.73253   
     axis 0 0 0   XYZ
    dof rx ry rz
    limits (-20.0 45.0)
           (-30.0 30.0)
           (-30.0 30.0)
  end
  begin
     id 15 
     name upperneck
     direction -0.0348454 0.928205 -0.370435   
     length 1.66692   
     axis 0 0 0   XYZ
    dof rx ry rz
    limits (-20.0 45.0)
           (-30.0 30.0)
           (-30.0 30.0)
  end
  begin
     id 16
     name head
     direction -0.00807754 0.992494 -0.122026  
     length 1.72765  
     axis 0 0 0   XYZ
    dof rx ry rz
    limits (-20.0 45.0)
           (-30.0 30.0)
           (-30.0 30.0)
  end
  begin
     id 17 
     name lclavicle
     direction 0.987582 0.144023 0.0627671  
     length 3.49235  
     axis 0 0 0   XYZ
    dof ry rz
    limits (-20.0 10.0)
           (0.0 20.0)
  end
  begin
     id 18 
     name lhumerus
     direction 1 -4.48958e-011 -1.45183e-018   
     length 5.41917   
     axis 180 -30 -90   XYZ
    dof rx ry rz
    limits (-60.0 90.0)
           (-90.0 90.0)
           (-90.0 90.0)
  end
  begin
     id 19
     name lradius
     direction 1 -4.48999e-011 5.75106e-027   
     length 2.44373   
     axis 180 -30 -90   XYZ
    dof rx
    limits (-10.0 170.0)
  end
  begin
     id 20
     name lwrist
     direction 1 -4.48987e-011 1.53461e-026   
     length 1.22186   
     axis -1.09697e-014 90 90   XYZ
    dof ry
    limits (-180.0 0.0)
 end
  begin
     id 21 
     name lhand
     direction 1 -4.48881e-011 3.06923e-026   
     length 0.727502   
     axis -1.95843e-014 90 90   XYZ
    dof rx rz
    limits (-90.0 90.0)
           (-45.0 45.0)
  end
  begin
     id 22 
     name lfingers
     direction 1 -4.48907e-011 6.13845e-026   
     length 0.586531   
     axis -3.91686e-014 90 90   XYZ
    dof rx
    limits (0.0 90.0)
  end
  begin
     id 23
     name lthumb
     direction 0.707107 -6.3487e-011 0.707107   
     length 0.842145   
     axis -90 45 2.85299e-015   XYZ
    dof rx rz
    limits (-45.0 45.0)
           (-45.0 45.0)
  end
  begin
     id 24 
     name rclavicle
     direction -0.980998 0.169556 0.0943023   
     length 3.29272  
     axis 0 0 0   XYZ 
    dof ry rz
    limits (-10.0 20.0)
           (-20.0 0.0)
  end
  begin
     id 25 
     name rhumerus
     direction -1 -1.83355e-005 2.45537e-005  
     length 5.58976   
     axis 180 30 90   XYZ
    dof rx ry rz
    limits (-90.0 60.0)
           (-90.0 90.0)
           (-90.0 90.0)
  end
  begin
     id 26 
     name rradius
     direction -1 -4.48967e-011 5.97228e-027   
     length 2.4806   
     axis 180 30 90   XYZ
    dof rx
    limits (-10.0 170.0)
  end
  begin
     id 27 
     name rwrist
     direction -1 -4.48963e-011 1.53461e-026   
     length 1.2403   
     axis -1.09697e-014 -90 -90   XYZ
    dof ry
    limits (-180.0 0.0)
  end
  begin
     id 28
     name rhand
     direction -1 -4.48881e-011 3.06923e-026   
     length 0.816009   
     axis -1.95843e-014 -90 -90   XYZ
    dof rx rz
    limits (-90.0 90.0)
           (-45.0 45.0)
  end
  begin
     id 29
     name rfingers
     direction -1 -4.49018e-011 6.13845e-026   
     length 0.657887   
     axis -3.91686e-014 -90 -90   XYZ
    dof rx
    limits (0.0 90.0)
  end
  begin
     id 30
     name rthumb
     direction -0.707107 -6.34872e-011 0.707107   
     length 0.944599   
     axis -90 -45 -2.85299e-015   XYZ
    dof rx rz
    limits (-45.0 45.0)
           (-45.0 45.0)
  end
:hierarchy
  begin
    root lhipjoint rhipjoint lowerback
    lhipjoint lfemur
    lfemur ltibia
    ltibia lfoot
    lfoot ltoes
    rhipjoint rfemur
    rfemur rtibia
    rtibia rfoot
    rfoot rtoes
    lowerback upperback
    upperback thorax
    thorax lowerneck lclavicle rclavicle
    lowerneck upperneck
    upperneck head
    lclavicle lhumerus
    lhumerus lradius
    lradius lwrist
    lwrist lhand lthumb
    lhand lfingers
    rclavicle rhumerus
    rhumerus rradius
    rradius rwrist
    rwrist rhand rthumb
    rhand rfingers
  end

#!OML:ASF F:\VICON\USERDATA\INSTALL\rory3\rory3.ASF
:FULLY-SPECIFIED
:DEGREES
17
root 2.92415 16.5934 13.7171 19.3494 -25.4007 0.834311
lowerback 1.23643 -3.89023 -3.90049
upperback -9.06318 -5.63612 -0.0349035
thorax -9.94428 -2.48978 2.67342
lowerneck -7.44437 -6.94349 -10.2032
upperneck 37.3609 -13.6118 11.6272
head 16.1832 -6.18531 4.56638
rclavicle -1.73937e-014 -1.19271e-014
rhumerus -156.95 -33.7638 106.094
rradius 12.0904
rwrist 116.213
rhand -10.296 18.7016
rfingers 7.12502
rthumb 15.6986 -10.6816
lclavicle -1.73937e-014 -1.19271e-014
lhumerus -16.2548 76.0644 65.3675
lradius 19.0497
lwrist 9.29808
lhand 10.1556 16.2139
lfingers 7.12502
lthumb 35.2739 42.7055
rfemur -66.3247 9.20492 17.8005
rtibia 43.1235
rfoot 10.0653 -23.9343
rtoes 7.05489
lfemur -26.3052 -12.8306 -26.992
ltibia 34.3245
lfoot -26.1512 13.451
ltoes -9.90692
18
root 2.95721 16.6083 13.6242 19.56 -26.4738 0.616316
lowerback 1.89924 -4.265 -4.24776
upperback -9.71232 -6.1899 0.623067
thorax -10.9371 -2.65821 3.71136
lowerneck -6.64858 -6.94053 -10.8696
upperneck 37.7763 -13.5035 11.1636
head 16.2006 -6.34444 4.53548
rclavicle -1.09176e-014 -4.77083e-015
rhumerus -157.608 -33.3637 106.352
rradius 12.0841
rwrist 117.042
rhand -11.471 18.6626
rfingers 7.12502
rthumb 14.5667 -10.8059
lclavicle -1.09176e-014 -4.77083e-015
lhumerus -26.9299 77.0194 55.8911
lradius 19.4313
lwrist 9.03978
lhand 9.60237 16.6778
lfingers 7.12502
lthumb 34.7491 43.2921
rfemur -65.9318 8.86607 18.4941
rtibia 43.1237
rfoot 7.06546 -24.7799
rtoes 12.657
lfemur -26.8975 -12.0056 -26.9596
ltibia 34.4724
lfoot -26.0749 13.6875
ltoes -9.99728
19
root 2.98212 16.6159 13.5239 19.8809 -27.7165 0.370972
lowerback 1.36052 -4.20094 -4.12127
upperback -9.44714 -6.06186 0.529402
thorax -10.3415 -2.64039 3.46242
lowerneck -6.52668 -7.31811 -10.8806
upperneck 37.4254 -14.2153 11.5048
head 16.1556 -6.62416 4.54641
rclavicle 3.70733e-014 -2.06736e-014
rhumerus -157.908 -35.0156 104.168
rradius 11.2709
rwrist 111.118
rhand -14.033 16.9056
rfingers 7.12502
rthumb 12.0972 -12.7247
lclavicle 3.70733e-014 -2.06736e-014
lhumerus -42.6952 82.6945 39.5301
lradius 17.4631
lwrist 2.75583
lhand 9.76306 15.7137
lfingers 7.12502
lthumb 34.9016 42.2927
rfemur -65.6496 9.13322 18.7864
rtibia 43.101
rfoot 4.76098 -25.3768
rtoes 13.877
lfemur -27.7014 -11.1299 -26.8385
ltibia 34.6858
lfoot -26.0681 13.9558
ltoes -9.44727
20
root 3.01198 16.6367 13.4586 20.0538 -28.881 0.385861
lowerback -0.367813 -3.81453 -3.47695
upperback -8.43638 -5.41734 -0.164339
thorax -8.3572 -2.48103 2.12515
lowerneck -7.23036 -8.14186 -10.7146
upperneck 36.808 -15.677 12.2815
head 16.3576 -7.09684 4.533
rclavicle 4.94228e-014 1.19271e-014
rhumerus -159.367 -34.0587 103.375
rradius 11.023
rwrist 108.157
rhand -15.106 17.1413
rfingers 7.12502
rthumb 11.0625 -12.5472
lclavicle 4.94228e-014 1.19271e-014
lhumerus -19.1614 75.2266 64.9751
lradius 19.9312
lwrist 10.5027
lhand 7.73184 17.8625
lfingers 7.12502
lthumb 32.972 44.8686
rfemur -65.1517 8.64394 19.1461
rtibia 43.1527
rfoot 3.16267 -25.5102
rtoes 12.7352
lfemur -28.1791 -10.8006 -27.0179
ltibia 34.8098
lfoot -26.4046 14.3691
ltoes -8.15072
21
root 3.04239 16.6536 13.3794 20.4492 -29.9768 0.0130664
lowerback -0.0266277 -4.19628 -3.48421
upperback -9.14246 -5.94063 0.544208
thorax -9.23562 -2.68259 2.97342
lowerneck -6.3994 -7.97483 -11.8407
upperneck 37.2792 -15.3234 12.0196
head 16.4274 -7.19673 4.73092
rclavicle -4.16951e-014 1.59028e-015
rhumerus -159.746 -33.6177 103.571
rradius 10.8371
rwrist 109.36
rhand -15.8606 17.7811
rfingers 7.12502
rthumb 10.3346 -11.9449
lclavicle -4.16951e-014 1.59028e-015
lhumerus -60.1408 83.8739 23.3998
lradius 17.0876
lwrist 2.17751
lhand 8.04845 16.3871
lfingers 7.12502
lthumb 33.2731 43.3293
rfemur -64.7447 8.88396 19.2538
rtibia 43.1722
rfoot 0.191048 -26.8385
rtoes 13.7723
lfemur -28.8104 -10.6244 -26.7273
ltibia 34.9385
lfoot -26.8396 14.809
ltoes -5.74571
22
root 3.06896 16.6654 13.2962 20.869 -31.19 -0.377433
lowerback -1.34803 -3.55073 -2.64085
upperback -8.06398 -4.98955 -0.340763
thorax -7.48177 -2.361 1.36828
lowerneck -7.17423 -9.09653 -10.6703
upperneck 36.3538 -17.3563 12.7137
head 16.483 -7.77327 4.36138
rclavicle -6.79844e-014 1.66979e-014
rhumerus -162.316 -29.0176 104.077
rradius 11.519
rwrist 110.502
rhand -16.7074 18.4114
rfingers 7.12502
rthumb 9.51763 -11.3536
lclavicle -6.79844e-014 1.66979e-014
lhumerus -25.3112 81.0572 58.993
lradius 18.1026
lwrist 6.5129
lhand 5.70234 18.6465
lfingers 7.12502
lthumb 31.0397 46.0404
rfemur -64.3824 9.44286 19.1546
rtibia 43.2177
rfoot -2.31752 -27.8347
rtoes 14.8713
lfemur -29.4647 -10.25 -26.4317
ltibia 34.9869
lfoot -27.2694 15.1578
ltoes -3.24309
23
root 3.09343 16.6827 13.2205 21.0651 -32.5203 -0.578786
lowerback -1.15581 -3.51071 -2.74276
upperback -8.267 -4.95045 -0.196304
thorax -7.79545 -2.32366 1.59644
lowerneck -6.87353 -9.42292 -10.3154
upperneck 36.4671 -17.7968 12.1072
head 16.4146 -8.00073 3.95622
rclavicle 1.43125e-014 2.54444e-014
rhumerus -162.875 -28.0414 103.721
rradius 11.6439
rwrist 110.676
rhand -17.663 18.589
rfingers 7.12502
rthumb 8.59558 -11.216
lclavicle 1.43125e-014 2.54444e-014
lhumerus -29.1534 80.6412 56.0647
lradius 18.4569
lwrist 8.14472
lhand 4.41999 19.9877
lfingers 7.12502
lthumb 29.8166 47.608
rfemur -63.8283 9.92781 18.8814
rtibia 43.2626
rfoot -4.76061 -28.3356
rtoes 16.6498
lfemur -29.928 -9.81193 -26.3799
ltibia 35.0561
lfoot -27.565 15.8684
ltoes -2.93104
24
root 3.11624 16.6982 13.1439 21.1249 -33.7811 -0.619166
lowerback -1.24728 -3.32179 -2.83852
upperback -8.17892 -4.70306 -0.338606
thorax -7.66162 -2.20404 1.47881
lowerneck -7.05487 -9.89401 -9.21015
upperneck 36.5014 -18.4743 11.3308
head 16.3324 -8.2146 3.28302
rclavicle -8.24956e-015 7.15625e-015
rhumerus -162.376 -30.2834 101.574
rradius 10.9267
rwrist 106.418
rhand -18.4949 18.3826
rfingers 7.12502
rthumb 7.79264 -11.4538
lclavicle -8.24956e-015 7.15625e-015
lhumerus -21.3158 73.803 65.9955
lradius 20.775
lwrist 15.7808
lhand 2.25546 21.8083
lfingers 7.12502
lthumb 27.7489 49.7804
rfemur -63.2473 10.2677 18.459
rtibia 43.3396
rfoot -7.31245 -29.135
rtoes 17.8221
lfemur -30.2604 -9.37175 -26.4991
ltibia 35.1022
lfoot -27.58 16.6426
ltoes -3.60291
25
root 3.14048 16.7079 13.06 21.2184 -35.0129 -0.525289
lowerback -1.39213 -3.22204 -3.04043
upperback -8.13483 -4.57451 -0.407495
thorax -7.52629 -2.13394 1.50086
lowerneck -7.29781 -10.1851 -8.47664
upperneck 36.4307 -18.9374 10.972
head 16.2757 -8.34413 2.8975
rclavicle -6.21699e-014 -3.73715e-014
rhumerus -162.803 -30.2007 100.702
rradius 10.6634
rwrist 104.884
rhand -19.2098 18.9243
rfingers 7.12502
rthumb 7.10259 -10.9365
lclavicle -6.21699e-014 -3.73715e-014
lhumerus -21.3934 72.8334 67.0043
lradius 21.2741
lwrist 17.3378
lhand 1.39163 22.3448
lfingers 7.12502
lthumb 26.9226 50.4472
rfemur -62.8258 10.6817 17.7529
rtibia 43.4464
rfoot -10.0691 -30.1467
rtoes 18.0211
lfemur -30.7343 -8.97497 -26.6909
ltibia 35.125
lfoot -27.6316 17.1968
ltoes -2.60939
26
root 3.16533 16.7188 12.9724 21.3973 -36.2716 -0.566104
lowerback -1.3806 -3.17243 -3.21775
upperback -8.24312 -4.51552 -0.293597
thorax -7.63222 -2.08739 1.72014
lowerneck -7.20429 -10.3884 -8.92344
upperneck 36.5122 -19.4174 11.3773
head 16.504 -8.57302 3.04924
rclavicle 2.68359e-015 1.51076e-014
rhumerus -163.95 -28.4496 100.718
rradius 11.1884
rwrist 105.367
rhand -20.1578 19.7955
rfingers 7.12502
rthumb 6.18743 -10.0942
lclavicle 2.68359e-015 1.51076e-014
lhumerus -23.2533 73.1846 66.0138
lradius 20.9445
lwrist 17.522
lhand 0.851624 22.018
lfingers 7.12502
lthumb 26.4058 50.199
rfemur -62.4058 11.2006 17.0936
rtibia 43.5118
rfoot -13.1361 -30.9995
rtoes 18.9698
lfemur -31.283 -8.41359 -26.7493
ltibia 35.1907
lfoot -27.7448 17.6311
ltoes -1.79843
27
root 3.19186 16.7361 12.8904 21.6944 -37.2851 -0.901588
lowerback -1.39497 -3.28093 -3.09571
upperback -8.34725 -4.64471 0.0384861
thorax -7.7118 -2.14648 2.00882
lowerneck -6.74018 -10.5008 -10.305
upperneck 36.5886 -19.81 12.2575
head 16.8505 -8.8663 3.60009
rclavicle -3.47376e-014 2.62396e-014
rhumerus -164.094 -29.5363 99.724
rradius 10.5809
rwrist 103.74
rhand -21.3753 19.6699
rfingers 7.12502
rthumb 5.01195 -10.2509
lclavicle -3.47376e-014 2.62396e-014
lhumerus -26.199 74.0177 64.0558
lradius 20.7257
lwrist 17.3421
lhand 0.636759 21.3896
lfingers 7.12502
lthumb 26.2001 49.6013
rfemur -61.808 11.4467 16.8406
rtibia 43.5332
rfoot -16.9658 -31.3037
rtoes 24.1411
lfemur -31.7848 -8.08426 -26.4613
ltibia 35.2968
lfoot -27.7066 18.3647
ltoes -2.20626
28
root 3.21775 16.7507 12.8147 22.0587 -38.3506 -1.33501
lowerback -1.53523 -3.20171 -2.72742
upperback -8.23706 -4.51739 0.0614441
thorax -7.53985 -2.11266 1.80997
lowerneck -6.79583 -10.8015 -10.6439
upperneck 36.551 -20.5267 12.8522
head 17.1448 -9.1548 3.75492
rclavicle -8.4732e-014 -4.37326e-014
rhumerus -164.865 -28.7429 99.13
rradius 10.6743
rwrist 103.687
rhand -21.8495 20.3148
rfingers 7.12502
rthumb 4.55405 -9.61625
lclavicle -8.4732e-014 -4.37326e-014
lhumerus -26.6549 74.6897 64.0695
lradius 20.2177
lwrist 16.6148
lhand 0.323956 20.9048
lfingers 7.12502
lthumb 25.9006 49.1606
rfemur -61.1337 11.2544 17.0103
rtibia 43.5427
rfoot -19.5394 -31.4373
rtoes 29.0595
lfemur -32.2268 -7.77423 -26.1115
ltibia 35.3972
lfoot -27.7619 19.1245
ltoes -2.53315
29
root 3.23951 16.7624 12.7409 22.4877 -39.8557 -1.51798
lowerback -1.99335 -3.11051 -2.7317
upperback -8.22012 -4.3793 0.122184
thorax -7.25737 -2.0509 1.83932
lowerneck -6.73219 -10.917 -10.731
upperneck 36.3868 -20.8032 13.0827
head 17.15 -9.27386 3.80678
rclavicle 7.53394e-014 1.43125e-014
rhumerus -166.258 -26.0661 99.3569
rradius 11.4179
rwrist 105.777
rhand -22.1795 21.5848
rfingers 7.12502
rthumb 4.23548 -8.3528
lclavicle 7.53394e-014 1.43125e-014
lhumerus -27.265 74.8114 64.1294
lradius 20.1068
lwrist 16.7323
lhand 0.273442 20.8376
lfingers 7.12502
lthumb 25.8523 49.1005
rfemur -60.7783 10.8637 17.1064
rtibia 43.6017
rfoot -19.4774 -32.1122
rtoes 22.7716
lfemur -32.8254 -7.39931 -26.0672
ltibia 35.4422
lfoot -27.9314 20.0523
ltoes -2.97001
